<svg width="84" height="84" viewBox="0 0 84 84" fill="none" xmlns="http://www.w3.org/2000/svg">
<path d="M35.125 24.125H37.875V31H35.125V24.125Z" fill="#2A88FF"/>
<path d="M46.125 24.125H48.875V31H46.125V24.125Z" fill="#2A88FF"/>
<path d="M40.625 24.125H43.375V31H40.625V24.125Z" fill="#2A88FF"/>
<path d="M35.125 35.125H37.875V42H35.125V35.125Z" fill="#2A88FF"/>
<path d="M46.125 35.125H48.875V42H46.125V35.125Z" fill="#2A88FF"/>
<path d="M40.625 35.125H43.375V42H40.625V35.125Z" fill="#2A88FF"/>
<path d="M35.125 46.125H37.875V53H35.125V46.125Z" fill="#2A88FF"/>
<path d="M46.125 46.125H48.875V53H46.125V46.125Z" fill="#2A88FF"/>
<path d="M40.625 46.125H43.375V53H40.625V46.125Z" fill="#2A88FF"/>
<path d="M35.125 57.125H37.875V64H35.125V57.125Z" fill="#2A88FF"/>
<path d="M46.125 57.125H48.875V64H46.125V57.125Z" fill="#2A88FF"/>
<path d="M40.625 57.125H43.375V64H40.625V57.125Z" fill="#2A88FF"/>
<path d="M82.522 11.9118L61.897 0.911803C61.6979 0.805546 61.4757 0.749975 61.25 0.75H59.875C59.5103 0.75 59.1606 0.894866 58.9027 1.15273C58.6449 1.41059 58.5 1.76033 58.5 2.125V18.625H61.25V3.68329L80.5 13.95V64H83.25V13.125C83.25 12.8758 83.1823 12.6313 83.0541 12.4176C82.9259 12.2039 82.7419 12.029 82.522 11.9118Z" fill="#2A88FF"/>
<path d="M80.5 80.5H73.625V83.25H81.875C82.2397 83.25 82.5894 83.1051 82.8473 82.8473C83.1051 82.5894 83.25 82.2397 83.25 81.875V66.75H80.5V80.5Z" fill="#2A88FF"/>
<path d="M70.2382 28.465L55.1132 18.84C54.8926 18.6996 54.6365 18.625 54.375 18.625H54.0735L51.5839 8.66656C51.5096 8.36905 51.3379 8.10493 51.0962 7.91621C50.8545 7.72748 50.5567 7.62497 50.25 7.625H43.375V0.75H40.625V7.625H33.75C33.4433 7.62497 33.1455 7.72748 32.9038 7.91621C32.6621 8.10493 32.4904 8.36905 32.4161 8.66656L29.9265 18.625H29.625C29.3635 18.625 29.1074 18.6996 28.8868 18.84L13.7618 28.465C13.5667 28.5892 13.406 28.7606 13.2947 28.9633C13.1833 29.1661 13.125 29.3937 13.125 29.625V81.875C13.125 82.2397 13.2699 82.5894 13.5277 82.8473C13.7856 83.1051 14.1353 83.25 14.5 83.25H69.5C69.8647 83.25 70.2144 83.1051 70.4723 82.8473C70.7301 82.5894 70.875 82.2397 70.875 81.875V29.625C70.875 29.3937 70.8167 29.1661 70.7053 28.9633C70.594 28.7606 70.4333 28.5892 70.2382 28.465ZM34.8235 10.375H49.1765L51.239 18.625H47.5V13.125H44.75V18.625H39.25V13.125H36.5V18.625H32.761L34.8235 10.375ZM15.875 30.3798L29.625 21.6298V80.5H24.125V73.625H21.375V80.5H15.875V30.3798ZM32.375 21.375H51.625V80.5H48.875V68.125C48.875 67.7603 48.7301 67.4106 48.4723 67.1527C48.2144 66.8949 47.8647 66.75 47.5 66.75H36.5C36.1353 66.75 35.7856 66.8949 35.5277 67.1527C35.2699 67.4106 35.125 67.7603 35.125 68.125V80.5H32.375V21.375ZM37.875 69.5H40.625V80.5H37.875V69.5ZM43.375 80.5V69.5H46.125V80.5H43.375ZM68.125 80.5H62.625V73.625H59.875V80.5H54.375V21.6298L68.125 30.3798V80.5Z" fill="#2A88FF"/>
<path d="M73.625 36.5H77.75V39.25H73.625V36.5Z" fill="#2A88FF"/>
<path d="M73.625 43.375H77.75V46.125H73.625V43.375Z" fill="#2A88FF"/>
<path d="M73.625 50.25H77.75V53H73.625V50.25Z" fill="#2A88FF"/>
<path d="M73.625 57.125H77.75V59.875H73.625V57.125Z" fill="#2A88FF"/>
<path d="M73.625 64H77.75V66.75H73.625V64Z" fill="#2A88FF"/>
<path d="M73.625 70.875H77.75V73.625H73.625V70.875Z" fill="#2A88FF"/>
<path d="M62.625 64H65.375V70.875H62.625V64Z" fill="#2A88FF"/>
<path d="M57.125 64H59.875V70.875H57.125V64Z" fill="#2A88FF"/>
<path d="M62.625 53H65.375V59.875H62.625V53Z" fill="#2A88FF"/>
<path d="M57.125 53H59.875V59.875H57.125V53Z" fill="#2A88FF"/>
<path d="M62.625 42H65.375V48.875H62.625V42Z" fill="#2A88FF"/>
<path d="M57.125 42H59.875V48.875H57.125V42Z" fill="#2A88FF"/>
<path d="M62.625 31H65.375V37.875H62.625V31Z" fill="#2A88FF"/>
<path d="M57.125 31H59.875V37.875H57.125V31Z" fill="#2A88FF"/>
<path d="M73.625 29.625H77.75V32.375H73.625V29.625Z" fill="#2A88FF"/>
<path d="M68.125 22.75H77.75V25.5H68.125V22.75Z" fill="#2A88FF"/>
<path d="M64 15.875H77.75V18.625H64V15.875Z" fill="#2A88FF"/>
<path d="M3.5 13.95L22.75 3.68329V18.625H25.5V2.125C25.5 1.76033 25.3551 1.41059 25.0973 1.15273C24.8394 0.894866 24.4897 0.75 24.125 0.75H22.75C22.5243 0.749975 22.3021 0.805546 22.103 0.911803L1.47796 11.9118C1.25805 12.029 1.07415 12.2039 0.945923 12.4176C0.817699 12.6313 0.749977 12.8758 0.75 13.125V22.75H3.5V13.95Z" fill="#2A88FF"/>
<path d="M3.5 25.5H0.75V81.875C0.75 82.2397 0.894866 82.5894 1.15273 82.8473C1.41059 83.1051 1.76033 83.25 2.125 83.25H10.375V80.5H3.5V25.5Z" fill="#2A88FF"/>
<path d="M6.25 36.5H10.375V39.25H6.25V36.5Z" fill="#2A88FF"/>
<path d="M6.25 43.375H10.375V46.125H6.25V43.375Z" fill="#2A88FF"/>
<path d="M6.25 50.25H10.375V53H6.25V50.25Z" fill="#2A88FF"/>
<path d="M6.25 57.125H10.375V59.875H6.25V57.125Z" fill="#2A88FF"/>
<path d="M6.25 64H10.375V66.75H6.25V64Z" fill="#2A88FF"/>
<path d="M6.25 70.875H10.375V73.625H6.25V70.875Z" fill="#2A88FF"/>
<path d="M18.625 64H21.375V70.875H18.625V64Z" fill="#2A88FF"/>
<path d="M24.125 64H26.875V70.875H24.125V64Z" fill="#2A88FF"/>
<path d="M18.625 53H21.375V59.875H18.625V53Z" fill="#2A88FF"/>
<path d="M24.125 53H26.875V59.875H24.125V53Z" fill="#2A88FF"/>
<path d="M18.625 42H21.375V48.875H18.625V42Z" fill="#2A88FF"/>
<path d="M24.125 42H26.875V48.875H24.125V42Z" fill="#2A88FF"/>
<path d="M18.625 31H21.375V37.875H18.625V31Z" fill="#2A88FF"/>
<path d="M24.125 31H26.875V37.875H24.125V31Z" fill="#2A88FF"/>
<path d="M6.25 29.625H10.375V32.375H6.25V29.625Z" fill="#2A88FF"/>
<path d="M6.25 22.75H15.875V25.5H6.25V22.75Z" fill="#2A88FF"/>
<path d="M6.25 15.875H20V18.625H6.25V15.875Z" fill="#2A88FF"/>
</svg>
